<svg version="1.1" id="Layer_1" xmlns="http://www.w3.org/2000/svg" xmlns:xlink="http://www.w3.org/1999/xlink" x="0px" y="0px"
	 width="100%" viewBox="0 0 500 500" enable-background="new 0 0 500 500" xml:space="preserve">
<path fill="#FFFFFF" opacity="1.000000" stroke="none" 
	d="
M319.000000,501.000000 
	C212.666687,501.000000 106.833382,501.000000 1.000057,501.000000 
	C1.000038,334.333405 1.000038,167.666794 1.000019,1.000146 
	C167.666565,1.000098 334.333130,1.000098 500.999756,1.000049 
	C500.999847,167.666519 500.999847,334.333038 500.999939,500.999786 
	C440.500000,501.000000 380.000000,501.000000 319.000000,501.000000 
M242.007446,201.940430 
	C242.199356,202.124771 242.391281,202.309128 242.747162,203.292267 
	C241.771057,207.148834 240.794952,211.005402 239.532822,215.991989 
	C241.802063,214.400818 243.857010,213.566116 244.991867,212.044968 
	C247.844864,208.220840 250.227402,204.049347 252.916290,200.097198 
	C253.847443,198.728607 255.078308,197.548874 256.258148,196.368744 
	C257.463989,195.162582 260.002625,193.725296 259.798615,192.981155 
	C259.288757,191.121368 257.767059,189.355591 256.242981,188.017105 
	C255.089371,187.003967 253.305984,186.707962 250.795959,185.680725 
	C257.652924,184.563553 259.213104,185.640503 263.280029,193.205795 
	C270.803040,192.240204 272.817719,187.304398 269.114929,179.782349 
	C269.309723,179.503189 269.504486,179.224030 270.359222,179.306366 
	C271.633209,182.219498 272.907196,185.132645 274.267517,188.243195 
	C279.920868,188.489944 284.067535,184.967560 286.318787,177.211304 
	C287.312714,173.786896 286.095123,171.137924 282.655701,169.783386 
	C277.253571,174.940048 274.536255,175.604782 270.572266,172.448700 
	C271.989807,172.272842 273.056335,172.105423 274.129303,172.013748 
	C277.928467,171.689163 280.467194,169.665558 280.990082,165.949173 
	C281.670441,161.113571 278.309875,158.392105 274.476410,157.071152 
	C268.924225,155.157974 262.616241,156.435364 257.173676,153.324432 
	C256.298187,152.824020 254.467117,153.995468 253.282181,154.335434 
	C252.335129,157.839081 254.571533,162.232666 249.097382,164.263306 
	C250.610809,159.793289 252.714661,155.649414 247.644119,153.213226 
	C243.418594,151.183029 239.575928,153.488586 235.977585,159.581543 
	C229.918518,157.932007 226.325150,159.235352 224.897980,163.600250 
	C223.310440,168.455551 225.367447,170.667145 234.888168,174.686966 
	C233.379333,175.258148 231.348541,176.175644 230.295654,175.520828 
	C226.868057,173.389053 223.797882,170.682617 220.139313,167.848038 
	C215.486496,170.353104 214.438538,173.354172 216.633087,179.377960 
	C217.113602,180.696930 216.281067,182.448669 216.590576,183.885345 
	C217.175491,186.600540 217.377411,190.286133 219.177399,191.605728 
	C221.032867,192.966003 225.439682,193.083054 227.196381,191.739136 
	C229.119247,190.268066 229.452942,186.542221 230.130508,183.715454 
	C230.373184,182.702988 229.598785,181.446747 229.141891,179.760254 
	C233.952759,182.953506 234.491440,188.619949 230.209900,192.602280 
	C226.710831,195.856842 228.356033,198.285202 230.562546,200.566040 
	C233.796661,203.909119 237.653366,203.728821 242.007446,201.940430 
M198.241730,176.958023 
	C196.850723,188.562439 198.841217,199.565033 204.857025,209.582016 
	C210.237732,218.541458 216.499878,226.988586 221.578064,236.104660 
	C223.759705,240.020966 226.195953,240.942780 230.975830,240.825577 
	C228.612762,236.263687 226.808502,232.175339 224.478668,228.412430 
	C220.020798,221.212570 214.874466,214.418213 210.711563,207.060791 
	C201.787460,191.288589 201.847748,175.356888 211.436035,159.801193 
	C224.028809,139.371078 250.703674,132.177261 272.297302,143.005646 
	C292.118347,152.945160 305.107635,178.862350 293.801331,201.803375 
	C288.988159,211.569534 282.596680,220.588715 276.573792,229.717316 
	C272.281006,236.223679 271.159393,243.097519 272.348328,250.675247 
	C274.359802,251.039078 276.262848,251.383286 279.214111,251.917099 
	C275.496338,239.187302 283.409485,231.042542 289.549377,222.210251 
	C290.119080,221.390732 290.709930,220.584915 291.254181,219.748810 
	C298.683929,208.334991 304.384766,196.538773 304.143433,182.259659 
	C303.669312,154.209930 276.871552,129.323593 248.901672,131.645630 
	C222.056976,133.874252 204.090988,149.677719 198.241730,176.958023 
M248.875992,348.302368 
	C248.875992,343.500916 248.875992,338.699493 248.875992,333.898041 
	C252.891418,338.578827 256.438202,343.067657 258.914764,348.084808 
	C261.599701,353.524109 265.573425,353.556122 270.514038,352.604828 
	C270.514038,341.381744 270.514038,330.360229 270.514038,319.395996 
	C267.577362,319.395996 265.026276,319.395996 261.875977,319.395996 
	C261.875977,325.903198 261.875977,332.007874 261.875977,339.182343 
	C258.186035,333.546936 254.666351,329.215912 252.325424,324.321136 
	C249.648376,318.723511 245.702408,318.241516 240.495438,319.448578 
	C240.495438,330.641632 240.495438,341.662994 240.495438,352.637024 
	C248.222809,353.476227 248.222809,353.476227 248.875992,348.302368 
M293.188690,344.325592 
	C296.494293,348.897980 298.217194,356.060791 306.731079,352.253479 
	C306.731079,341.442261 306.731079,330.419952 306.731079,319.405212 
	C303.986023,319.405212 301.607452,319.405212 298.726532,319.405212 
	C298.726532,325.977875 298.726532,332.153229 298.726532,339.828094 
	C294.728577,333.683228 291.522461,328.879791 288.446014,323.994659 
	C284.806061,318.214661 284.068634,317.890472 277.229980,319.819611 
	C277.229980,330.721558 277.229980,341.623505 277.229980,352.635223 
	C279.933258,352.635223 282.311615,352.635223 285.182220,352.635223 
	C285.182220,346.092743 285.182220,339.902771 285.182220,333.712830 
	C285.474915,333.633179 285.767578,333.553558 286.060272,333.473938 
	C288.319519,336.880035 290.578766,340.286163 293.188690,344.325592 
M221.999939,319.085175 
	C221.168671,319.054260 220.337402,318.996185 219.506149,318.996613 
	C208.977142,319.001770 200.768250,326.988708 201.372070,336.631409 
	C202.039795,347.294250 211.431351,354.596191 222.267624,352.877655 
	C230.109818,351.633942 235.836334,345.032532 236.460281,336.516724 
	C237.037674,328.635986 231.976868,322.204132 221.999939,319.085175 
M237.365448,245.319016 
	C234.096558,244.829391 230.737045,243.657562 227.588745,244.075790 
	C225.259949,244.385162 223.206161,246.764709 221.029846,248.222000 
	C222.614395,250.120132 224.069672,252.153381 225.845032,253.852097 
	C226.589127,254.564041 227.997620,254.629608 229.127991,254.881790 
	C235.115479,256.217590 241.107574,257.533203 247.103790,258.829376 
	C254.883774,260.511108 262.634613,262.363586 270.467957,263.746338 
	C273.966736,264.363953 278.136383,263.809265 279.088654,259.769348 
	C280.148651,255.272507 275.957428,254.244995 272.662476,253.071243 
	C272.508331,253.016342 272.335114,253.017426 272.173004,252.982132 
	C260.836456,250.514145 249.500168,248.045074 237.365448,245.319016 
M276.849884,268.470978 
	C275.957703,268.029541 275.110321,267.386200 274.166656,267.176941 
	C259.409393,263.904755 244.645401,260.661621 229.862213,257.509155 
	C228.641693,257.248901 227.033035,257.290833 226.022827,257.893372 
	C224.186539,258.988647 221.451706,260.522278 221.340881,262.037476 
	C221.221878,263.664429 223.577530,265.590210 225.087494,267.160431 
	C225.688858,267.785767 226.902176,267.878723 227.863861,268.093048 
	C241.157089,271.055664 254.442764,274.054749 267.763824,276.887177 
	C269.982727,277.358948 272.439392,277.492889 274.649139,277.068878 
	C279.611328,276.116638 280.484467,273.222168 276.849884,268.470978 
M228.661942,270.993347 
	C227.520645,271.178131 226.113403,271.008575 225.294601,271.623108 
	C223.697708,272.821594 221.579163,274.312469 221.295731,275.960693 
	C221.069534,277.276031 223.093857,279.154266 224.414307,280.491211 
	C225.161224,281.247467 226.467789,281.576324 227.583069,281.824371 
	C241.348267,284.885071 255.109375,287.967834 268.905823,290.882660 
	C274.363525,292.035706 279.307922,290.067902 279.296844,286.789307 
	C279.279816,281.749969 274.991760,280.985138 271.325287,280.157867 
	C257.410126,277.018158 243.455627,274.052612 228.661942,270.993347 
M195.323715,348.837860 
	C196.703201,346.919495 198.082672,345.001129 199.983841,342.357269 
	C194.721954,341.955200 191.036606,341.175293 187.134048,344.114929 
	C183.856293,346.583923 179.739456,345.598358 176.808868,342.356689 
	C173.915848,339.156555 174.017792,332.483765 177.015366,329.422729 
	C180.058044,326.315643 184.082489,325.494080 187.406982,328.030609 
	C191.287872,330.991699 194.901993,330.061157 198.967728,329.602814 
	C196.297714,321.386292 187.176178,317.018707 178.605026,319.463013 
	C169.298111,322.117126 164.141022,331.178284 166.492996,340.481049 
	C169.456635,352.203186 184.493088,357.208710 195.323715,348.837860 
M131.073013,352.886993 
	C142.107712,353.306366 148.423874,349.738342 149.921616,340.792480 
	C145.542328,342.126251 141.794052,343.159790 138.121735,344.415497 
	C134.151611,345.773071 130.560562,345.555054 127.693275,342.225372 
	C125.026848,339.128967 125.071938,332.694244 127.794601,329.667206 
	C130.717316,326.417755 134.846558,325.407959 138.104599,327.872742 
	C142.010941,330.828094 145.706680,330.010010 150.697937,329.707855 
	C149.231964,327.360687 148.406296,325.375793 147.019241,323.929138 
	C139.845779,316.447571 126.313507,317.569580 120.152206,325.864685 
	C114.614799,333.319824 115.360435,348.546844 131.073013,352.886993 
M344.594727,350.038116 
	C355.464508,356.220306 369.140778,351.964569 369.619019,340.821991 
	C365.590546,342.090851 361.975128,343.117767 358.440704,344.372650 
	C354.481659,345.778320 350.846558,345.606964 347.948853,342.330200 
	C345.074005,339.079315 345.237061,332.389526 348.239777,329.357758 
	C351.311432,326.256409 354.875641,326.323547 358.821899,327.819733 
	C362.254242,329.121155 365.904755,329.847229 370.138916,331.015137 
	C368.621307,323.745667 363.512451,319.611389 356.994171,319.046021 
	C348.590454,318.317047 341.658966,322.101807 338.624268,329.076355 
	C335.395905,336.496124 337.362366,344.013397 344.594727,350.038116 
M328.439178,346.864471 
	C326.341583,346.864471 324.243958,346.864471 322.108582,346.864471 
	C322.108582,343.859985 322.108582,341.635742 322.108582,338.867554 
	C325.575531,338.867554 328.655792,338.867554 332.104309,338.867554 
	C331.981995,336.569275 331.890594,334.851562 331.796112,333.076782 
	C328.271454,332.912567 325.321838,332.775146 322.064697,332.623383 
	C322.064697,330.091400 322.064697,327.889435 322.064697,325.396423 
	C326.115845,325.199707 329.838593,325.018921 333.865784,324.823364 
	C333.756622,322.662170 333.676392,321.073364 333.586853,319.299988 
	C326.659607,319.299988 320.097748,319.299988 313.430695,319.299988 
	C313.430695,330.640259 313.430695,341.671448 313.430695,352.606567 
	C320.409790,352.606567 326.979645,352.606567 333.425537,352.606567 
	C334.498322,348.593475 333.837708,346.246490 328.439178,346.864471 
M267.072266,294.072327 
	C265.204651,293.196411 263.420441,291.960419 261.455353,291.505188 
	C251.410416,289.178192 241.318817,287.052612 231.058990,284.816437 
	C231.764984,294.654480 237.089859,301.370667 245.435257,303.594727 
	C253.581848,305.765808 261.222809,302.587952 267.072266,294.072327 
M372.889343,322.465454 
	C374.047363,328.100922 379.466400,323.133881 382.227356,326.679626 
	C382.227356,334.902496 382.227356,343.791656 382.227356,352.577881 
	C385.125549,352.577881 387.499756,352.577881 390.153442,352.577881 
	C390.153442,346.192719 390.153442,340.228821 390.153442,334.264923 
	C390.153473,325.646698 390.153839,325.651001 398.482269,324.934021 
	C398.766327,324.909576 399.026947,324.612610 399.375244,324.394623 
	C399.375244,322.722900 399.375244,321.021332 399.375244,319.007233 
	C391.188843,319.007233 383.402649,318.922119 375.623627,319.119141 
	C374.692474,319.142700 373.800140,320.699982 372.889343,322.465454 
M113.066765,323.662170 
	C112.960876,322.229004 112.854988,320.795868 112.751732,319.398376 
	C109.968819,319.398376 107.598579,319.398376 105.187927,319.398376 
	C105.187927,330.678772 105.187927,341.557465 105.187927,352.686890 
	C107.838310,352.686890 110.211319,352.686890 113.066963,352.686890 
	C113.066963,343.130798 113.066963,333.880981 113.066765,323.662170 
M273.786560,105.989822 
	C268.052032,110.914009 267.049408,118.121323 265.007294,124.759651 
	C264.753876,125.583511 266.837036,128.141312 267.696564,128.074814 
	C269.337189,127.947868 271.625214,126.893608 272.319916,125.542999 
	C274.582977,121.143181 276.345184,116.472862 278.111572,111.834824 
	C279.367645,108.536766 278.356964,106.305046 273.786560,105.989822 
M223.451218,111.344475 
	C225.360199,116.109093 227.254578,120.879631 229.183945,125.635979 
	C230.246048,128.254349 232.276947,130.238785 234.852051,128.552643 
	C236.190613,127.676208 237.056091,124.471619 236.580704,122.747314 
	C235.401855,118.471573 233.522446,114.344986 231.518784,110.362610 
	C230.731964,108.798775 228.706329,106.633965 227.526199,106.795692 
	C225.978287,107.007835 224.708588,109.250130 223.451218,111.344475 
M256.012054,116.321259 
	C256.001343,112.841431 256.044098,109.360359 255.962860,105.882179 
	C255.899033,103.149895 254.480469,101.073036 251.706284,101.823586 
	C250.209488,102.228539 248.304657,104.392731 248.158112,105.914780 
	C247.699707,110.676376 247.651093,115.547241 248.172195,120.295822 
	C248.356888,121.978676 250.635971,123.431694 251.958908,124.989639 
	C253.291229,123.569717 254.841370,122.287971 255.865997,120.672836 
	C256.395844,119.837646 255.993347,118.410973 256.012054,116.321259 
z"/>
<path fill="#074FAF" opacity="1.000000" stroke="none" 
	d="
M268.444641,180.552780 
	C272.817719,187.304398 270.803040,192.240204 263.280029,193.205795 
	C259.213104,185.640503 257.652924,184.563553 250.795959,185.680725 
	C253.305984,186.707962 255.089371,187.003967 256.242981,188.017105 
	C257.767059,189.355591 259.288757,191.121368 259.798615,192.981155 
	C260.002625,193.725296 257.463989,195.162582 256.258148,196.368744 
	C255.078308,197.548874 253.847443,198.728607 252.916290,200.097198 
	C250.227402,204.049347 247.844864,208.220840 244.991867,212.044968 
	C243.857010,213.566116 241.802063,214.400818 239.532822,215.991989 
	C240.794952,211.005402 241.771057,207.148834 242.796646,202.622833 
	C242.392410,201.747879 241.938690,201.542343 241.484970,201.336807 
	C237.653366,203.728821 233.796661,203.909119 230.562546,200.566040 
	C228.356033,198.285202 226.710831,195.856842 230.209900,192.602280 
	C234.491440,188.619949 233.952759,182.953506 229.141891,179.760254 
	C229.598785,181.446747 230.373184,182.702988 230.130508,183.715454 
	C229.452942,186.542221 229.119247,190.268066 227.196381,191.739136 
	C225.439682,193.083054 221.032867,192.966003 219.177399,191.605728 
	C217.377411,190.286133 217.175491,186.600540 216.590576,183.885345 
	C216.281067,182.448669 217.113602,180.696930 216.633087,179.377960 
	C214.438538,173.354172 215.486496,170.353104 220.139313,167.848038 
	C223.797882,170.682617 226.868057,173.389053 230.295654,175.520828 
	C231.348541,176.175644 233.379333,175.258148 234.888168,174.686966 
	C225.367447,170.667145 223.310440,168.455551 224.897980,163.600250 
	C226.325150,159.235352 229.918518,157.932007 235.977585,159.581543 
	C239.575928,153.488586 243.418594,151.183029 247.644119,153.213226 
	C252.714661,155.649414 250.610809,159.793289 249.097382,164.263306 
	C254.571533,162.232666 252.335129,157.839081 253.282181,154.335434 
	C254.467117,153.995468 256.298187,152.824020 257.173676,153.324432 
	C262.616241,156.435364 268.924225,155.157974 274.476410,157.071152 
	C278.309875,158.392105 281.670441,161.113571 280.990082,165.949173 
	C280.467194,169.665558 277.928467,171.689163 274.129303,172.013748 
	C273.056335,172.105423 271.989807,172.272842 270.572266,172.448700 
	C274.536255,175.604782 277.253571,174.940048 282.655701,169.783386 
	C286.095123,171.137924 287.312714,173.786896 286.318787,177.211304 
	C284.067535,184.967560 279.920868,188.489944 274.267517,188.243195 
	C272.907196,185.132645 271.633209,182.219498 269.852051,178.813141 
	C267.258362,177.613358 265.171814,176.906830 263.085297,176.200287 
	C262.937347,176.738602 262.789398,177.276917 262.641449,177.815247 
	C264.575867,178.727753 266.510254,179.640274 268.444641,180.552780 
M265.752289,160.436600 
	C264.560638,160.932709 263.368988,161.428802 262.177368,161.924911 
	C262.308472,162.241226 262.439575,162.557526 262.570709,162.873825 
	C261.152588,162.597672 259.734497,162.321503 258.316406,162.045334 
	C258.145416,162.637817 257.974426,163.230301 257.803436,163.822784 
	C261.818726,165.219864 265.834015,166.616943 270.864777,168.367355 
	C268.564728,165.097580 267.222260,163.189087 265.752289,160.436600 
M244.055649,191.715515 
	C245.633102,191.799225 247.210556,191.882919 248.788010,191.966629 
	C248.943970,191.469620 249.099930,190.972610 249.255905,190.475616 
	C245.255447,189.036484 241.254990,187.597366 236.053329,185.726120 
	C239.056076,189.701553 240.968826,192.233887 243.086716,195.037811 
	C243.406906,194.163971 243.710526,193.335388 244.055649,191.715515 
M255.891525,178.632034 
	C253.847458,176.052338 251.803391,173.472641 249.501160,170.567139 
	C249.098572,171.924545 248.760193,173.065475 248.381348,174.342819 
	C246.867554,173.895233 245.564850,173.510056 244.262146,173.124878 
	C244.056442,173.595428 243.850754,174.065979 243.645050,174.536545 
	C246.723389,177.607559 251.401352,177.481827 255.891525,178.632034 
z"/>
<path fill="#0A0A0A" opacity="1.000000" stroke="none" 
	d="
M198.318817,176.515076 
	C204.090988,149.677719 222.056976,133.874252 248.901672,131.645630 
	C276.871552,129.323593 303.669312,154.209930 304.143433,182.259659 
	C304.384766,196.538773 298.683929,208.334991 291.254181,219.748810 
	C290.709930,220.584915 290.119080,221.390732 289.549377,222.210251 
	C283.409485,231.042542 275.496338,239.187302 279.214111,251.917099 
	C276.262848,251.383286 274.359802,251.039078 272.348328,250.675247 
	C271.159393,243.097519 272.281006,236.223679 276.573792,229.717316 
	C282.596680,220.588715 288.988159,211.569534 293.801331,201.803375 
	C305.107635,178.862350 292.118347,152.945160 272.297302,143.005646 
	C250.703674,132.177261 224.028809,139.371078 211.436035,159.801193 
	C201.847748,175.356888 201.787460,191.288589 210.711563,207.060791 
	C214.874466,214.418213 220.020798,221.212570 224.478668,228.412430 
	C226.808502,232.175339 228.612762,236.263687 230.975830,240.825577 
	C226.195953,240.942780 223.759705,240.020966 221.578064,236.104660 
	C216.499878,226.988586 210.237732,218.541458 204.857025,209.582016 
	C198.841217,199.565033 196.850723,188.562439 198.318817,176.515076 
z"/>
<path fill="#64E3E7" opacity="1.000000" stroke="none" 
	d="
M248.875488,348.771851 
	C248.222809,353.476227 248.222809,353.476227 240.495438,352.637024 
	C240.495438,341.662994 240.495438,330.641632 240.495438,319.448578 
	C245.702408,318.241516 249.648376,318.723511 252.325424,324.321136 
	C254.666351,329.215912 258.186035,333.546936 261.875977,339.182343 
	C261.875977,332.007874 261.875977,325.903198 261.875977,319.395996 
	C265.026276,319.395996 267.577362,319.395996 270.514038,319.395996 
	C270.514038,330.360229 270.514038,341.381744 270.514038,352.604828 
	C265.573425,353.556122 261.599701,353.524109 258.914764,348.084808 
	C256.438202,343.067657 252.891418,338.578827 248.875992,333.898041 
	C248.875992,338.699493 248.875992,343.500916 248.875488,348.771851 
z"/>
<path fill="#5EE1E6" opacity="1.000000" stroke="none" 
	d="
M293.013367,344.008911 
	C290.578766,340.286163 288.319519,336.880035 286.060272,333.473938 
	C285.767578,333.553558 285.474915,333.633179 285.182220,333.712830 
	C285.182220,339.902771 285.182220,346.092743 285.182220,352.635223 
	C282.311615,352.635223 279.933258,352.635223 277.229980,352.635223 
	C277.229980,341.623505 277.229980,330.721558 277.226746,319.818329 
	C284.068634,317.890472 284.806061,318.214661 288.446014,323.994659 
	C291.522461,328.879791 294.728577,333.683228 298.726532,339.828094 
	C298.726532,332.153229 298.726532,325.977875 298.726532,319.405212 
	C301.607452,319.405212 303.986023,319.405212 306.731079,319.405212 
	C306.731079,330.419952 306.731079,341.442261 306.731079,352.253479 
	C298.217194,356.060791 296.494293,348.897980 293.013367,344.008911 
z"/>
<path fill="#61E2E7" opacity="1.000000" stroke="none" 
	d="
M222.416962,319.141998 
	C231.976868,322.204132 237.037674,328.635986 236.460281,336.516724 
	C235.836334,345.032532 230.109818,351.633942 222.267624,352.877655 
	C211.431351,354.596191 202.039795,347.294250 201.372070,336.631409 
	C200.768250,326.988708 208.977142,319.001770 219.506149,318.996613 
	C220.337402,318.996185 221.168671,319.054260 222.416962,319.141998 
M224.091354,328.080444 
	C222.847824,327.681732 221.437012,326.697296 220.392532,326.995605 
	C217.417038,327.845367 213.824921,328.495361 211.884552,330.552856 
	C208.949432,333.665161 208.960510,338.375244 211.915955,341.470123 
	C213.870590,343.516998 217.595245,344.964264 220.397141,344.772797 
	C222.717636,344.614258 225.583496,342.097931 226.900116,339.857727 
	C229.240356,335.875763 227.823593,331.873291 224.091354,328.080444 
z"/>
<path fill="#090909" opacity="1.000000" stroke="none" 
	d="
M237.764648,245.447556 
	C249.500168,248.045074 260.836456,250.514145 272.173004,252.982132 
	C272.335114,253.017426 272.508331,253.016342 272.662476,253.071243 
	C275.957428,254.244995 280.148651,255.272507 279.088654,259.769348 
	C278.136383,263.809265 273.966736,264.363953 270.467957,263.746338 
	C262.634613,262.363586 254.883774,260.511108 247.103790,258.829376 
	C241.107574,257.533203 235.115479,256.217590 229.127991,254.881790 
	C227.997620,254.629608 226.589127,254.564041 225.845032,253.852097 
	C224.069672,252.153381 222.614395,250.120132 221.029846,248.222000 
	C223.206161,246.764709 225.259949,244.385162 227.588745,244.075790 
	C230.737045,243.657562 234.096558,244.829391 237.764648,245.447556 
z"/>
<path fill="#090909" opacity="1.000000" stroke="none" 
	d="
M277.132996,268.704376 
	C280.484467,273.222168 279.611328,276.116638 274.649139,277.068878 
	C272.439392,277.492889 269.982727,277.358948 267.763824,276.887177 
	C254.442764,274.054749 241.157089,271.055664 227.863861,268.093048 
	C226.902176,267.878723 225.688858,267.785767 225.087494,267.160431 
	C223.577530,265.590210 221.221878,263.664429 221.340881,262.037476 
	C221.451706,260.522278 224.186539,258.988647 226.022827,257.893372 
	C227.033035,257.290833 228.641693,257.248901 229.862213,257.509155 
	C244.645401,260.661621 259.409393,263.904755 274.166656,267.176941 
	C275.110321,267.386200 275.957703,268.029541 277.132996,268.704376 
z"/>
<path fill="#0A0A0A" opacity="1.000000" stroke="none" 
	d="
M229.088898,271.007629 
	C243.455627,274.052612 257.410126,277.018158 271.325287,280.157867 
	C274.991760,280.985138 279.279816,281.749969 279.296844,286.789307 
	C279.307922,290.067902 274.363525,292.035706 268.905823,290.882660 
	C255.109375,287.967834 241.348267,284.885071 227.583069,281.824371 
	C226.467789,281.576324 225.161224,281.247467 224.414307,280.491211 
	C223.093857,279.154266 221.069534,277.276031 221.295731,275.960693 
	C221.579163,274.312469 223.697708,272.821594 225.294601,271.623108 
	C226.113403,271.008575 227.520645,271.178131 229.088898,271.007629 
z"/>
<path fill="#61E2E7" opacity="1.000000" stroke="none" 
	d="
M195.032593,349.073120 
	C184.493088,357.208710 169.456635,352.203186 166.492996,340.481049 
	C164.141022,331.178284 169.298111,322.117126 178.605026,319.463013 
	C187.176178,317.018707 196.297714,321.386292 198.967728,329.602814 
	C194.901993,330.061157 191.287872,330.991699 187.406982,328.030609 
	C184.082489,325.494080 180.058044,326.315643 177.015366,329.422729 
	C174.017792,332.483765 173.915848,339.156555 176.808868,342.356689 
	C179.739456,345.598358 183.856293,346.583923 187.134048,344.114929 
	C191.036606,341.175293 194.721954,341.955200 199.983841,342.357269 
	C198.082672,345.001129 196.703201,346.919495 195.032593,349.073120 
z"/>
<path fill="#61E2E7" opacity="1.000000" stroke="none" 
	d="
M130.659866,352.822723 
	C115.360435,348.546844 114.614799,333.319824 120.152206,325.864685 
	C126.313507,317.569580 139.845779,316.447571 147.019241,323.929138 
	C148.406296,325.375793 149.231964,327.360687 150.697937,329.707855 
	C145.706680,330.010010 142.010941,330.828094 138.104599,327.872742 
	C134.846558,325.407959 130.717316,326.417755 127.794601,329.667206 
	C125.071938,332.694244 125.026848,339.128967 127.693275,342.225372 
	C130.560562,345.555054 134.151611,345.773071 138.121735,344.415497 
	C141.794052,343.159790 145.542328,342.126251 149.921616,340.792480 
	C148.423874,349.738342 142.107712,353.306366 130.659866,352.822723 
z"/>
<path fill="#61E2E7" opacity="1.000000" stroke="none" 
	d="
M344.294128,349.819824 
	C337.362366,344.013397 335.395905,336.496124 338.624268,329.076355 
	C341.658966,322.101807 348.590454,318.317047 356.994171,319.046021 
	C363.512451,319.611389 368.621307,323.745667 370.138916,331.015137 
	C365.904755,329.847229 362.254242,329.121155 358.821899,327.819733 
	C354.875641,326.323547 351.311432,326.256409 348.239777,329.357758 
	C345.237061,332.389526 345.074005,339.079315 347.948853,342.330200 
	C350.846558,345.606964 354.481659,345.778320 358.440704,344.372650 
	C361.975128,343.117767 365.590546,342.090851 369.619019,340.821991 
	C369.140778,351.964569 355.464508,356.220306 344.294128,349.819824 
z"/>
<path fill="#5FE1E6" opacity="1.000000" stroke="none" 
	d="
M328.904724,346.864441 
	C333.837708,346.246490 334.498322,348.593475 333.425537,352.606567 
	C326.979645,352.606567 320.409790,352.606567 313.430695,352.606567 
	C313.430695,341.671448 313.430695,330.640259 313.430695,319.299988 
	C320.097748,319.299988 326.659607,319.299988 333.586853,319.299988 
	C333.676392,321.073364 333.756622,322.662170 333.865784,324.823364 
	C329.838593,325.018921 326.115845,325.199707 322.064697,325.396423 
	C322.064697,327.889435 322.064697,330.091400 322.064697,332.623383 
	C325.321838,332.775146 328.271454,332.912567 331.796112,333.076782 
	C331.890594,334.851562 331.981995,336.569275 332.104309,338.867554 
	C328.655792,338.867554 325.575531,338.867554 322.108582,338.867554 
	C322.108582,341.635742 322.108582,343.859985 322.108582,346.864471 
	C324.243958,346.864471 326.341583,346.864471 328.904724,346.864441 
z"/>
<path fill="#080808" opacity="1.000000" stroke="none" 
	d="
M266.954437,294.383179 
	C261.222809,302.587952 253.581848,305.765808 245.435257,303.594727 
	C237.089859,301.370667 231.764984,294.654480 231.058990,284.816437 
	C241.318817,287.052612 251.410416,289.178192 261.455353,291.505188 
	C263.420441,291.960419 265.204651,293.196411 266.954437,294.383179 
M243.409302,300.043671 
	C244.481812,300.253265 245.554306,300.462860 247.218307,300.788025 
	C242.705887,296.506134 238.895584,292.890472 234.652084,288.863739 
	C235.376587,294.467560 238.660568,297.409149 243.409302,300.043671 
z"/>
<path fill="#5EE1E6" opacity="1.000000" stroke="none" 
	d="
M372.889587,322.005920 
	C373.800140,320.699982 374.692474,319.142700 375.623627,319.119141 
	C383.402649,318.922119 391.188843,319.007233 399.375244,319.007233 
	C399.375244,321.021332 399.375244,322.722900 399.375244,324.394623 
	C399.026947,324.612610 398.766327,324.909576 398.482269,324.934021 
	C390.153839,325.651001 390.153473,325.646698 390.153442,334.264923 
	C390.153442,340.228821 390.153442,346.192719 390.153442,352.577881 
	C387.499756,352.577881 385.125549,352.577881 382.227356,352.577881 
	C382.227356,343.791656 382.227356,334.902496 382.227356,326.679626 
	C379.466400,323.133881 374.047363,328.100922 372.889587,322.005920 
z"/>
<path fill="#5EE1E6" opacity="1.000000" stroke="none" 
	d="
M113.066864,324.146667 
	C113.066963,333.880981 113.066963,343.130798 113.066963,352.686890 
	C110.211319,352.686890 107.838310,352.686890 105.187927,352.686890 
	C105.187927,341.557465 105.187927,330.678772 105.187927,319.398376 
	C107.598579,319.398376 109.968819,319.398376 112.751732,319.398376 
	C112.854988,320.795868 112.960876,322.229004 113.066864,324.146667 
z"/>
<path fill="#0B52B0" opacity="1.000000" stroke="none" 
	d="
M274.170715,105.938965 
	C278.356964,106.305046 279.367645,108.536766 278.111572,111.834824 
	C276.345184,116.472862 274.582977,121.143181 272.319916,125.542999 
	C271.625214,126.893608 269.337189,127.947868 267.696564,128.074814 
	C266.837036,128.141312 264.753876,125.583511 265.007294,124.759651 
	C267.049408,118.121323 268.052032,110.914009 274.170715,105.938965 
z"/>
<path fill="#0B52B0" opacity="1.000000" stroke="none" 
	d="
M223.385223,110.981873 
	C224.708588,109.250130 225.978287,107.007835 227.526199,106.795692 
	C228.706329,106.633965 230.731964,108.798775 231.518784,110.362610 
	C233.522446,114.344986 235.401855,118.471573 236.580704,122.747314 
	C237.056091,124.471619 236.190613,127.676208 234.852051,128.552643 
	C232.276947,130.238785 230.246048,128.254349 229.183945,125.635979 
	C227.254578,120.879631 225.360199,116.109093 223.385223,110.981873 
z"/>
<path fill="#074FAF" opacity="1.000000" stroke="none" 
	d="
M256.012054,116.786392 
	C255.993347,118.410973 256.395844,119.837646 255.865997,120.672836 
	C254.841370,122.287971 253.291229,123.569717 251.958908,124.989639 
	C250.635971,123.431694 248.356888,121.978676 248.172195,120.295822 
	C247.651093,115.547241 247.699707,110.676376 248.158112,105.914780 
	C248.304657,104.392731 250.209488,102.228539 251.706284,101.823586 
	C254.480469,101.073036 255.899033,103.149895 255.962860,105.882179 
	C256.044098,109.360359 256.001343,112.841431 256.012054,116.786392 
z"/>
<path fill="#E2EBF6" opacity="1.000000" stroke="none" 
	d="
M265.816040,160.858597 
	C267.222260,163.189087 268.564728,165.097580 270.864777,168.367355 
	C265.834015,166.616943 261.818726,165.219864 257.803436,163.822784 
	C257.974426,163.230301 258.145416,162.637817 258.316406,162.045334 
	C259.734497,162.321503 261.152588,162.597672 262.570709,162.873825 
	C262.439575,162.557526 262.308472,162.241226 262.177368,161.924911 
	C263.368988,161.428802 264.560638,160.932709 265.816040,160.858597 
z"/>
<path fill="#E2EBF6" opacity="1.000000" stroke="none" 
	d="
M244.034897,192.111160 
	C243.710526,193.335388 243.406906,194.163971 243.086716,195.037811 
	C240.968826,192.233887 239.056076,189.701553 236.053329,185.726120 
	C241.254990,187.597366 245.255447,189.036484 249.255905,190.475616 
	C249.099930,190.972610 248.943970,191.469620 248.788010,191.966629 
	C247.210556,191.882919 245.633102,191.799225 244.034897,192.111160 
z"/>
<path fill="#E2EBF6" opacity="1.000000" stroke="none" 
	d="
M255.557388,178.849457 
	C251.401352,177.481827 246.723389,177.607559 243.645050,174.536545 
	C243.850754,174.065979 244.056442,173.595428 244.262146,173.124878 
	C245.564850,173.510056 246.867554,173.895233 248.381348,174.342819 
	C248.760193,173.065475 249.098572,171.924545 249.501160,170.567139 
	C251.803391,173.472641 253.847458,176.052338 255.557388,178.849457 
z"/>
<path fill="#FFFFFF" opacity="1.000000" stroke="none" 
	d="
M268.779785,180.167572 
	C266.510254,179.640274 264.575867,178.727753 262.641449,177.815247 
	C262.789398,177.276917 262.937347,176.738602 263.085297,176.200287 
	C265.171814,176.906830 267.258362,177.613358 269.522095,178.632385 
	C269.504486,179.224030 269.309723,179.503189 268.779785,180.167572 
z"/>
<path fill="#FFFFFF" opacity="1.000000" stroke="none" 
	d="
M241.746216,201.638611 
	C241.938690,201.542343 242.392410,201.747879 242.714661,202.223450 
	C242.391281,202.309128 242.199356,202.124771 241.746216,201.638611 
z"/>
<path fill="#FBFEFE" opacity="1.000000" stroke="none" 
	d="
M224.418747,328.307678 
	C227.823593,331.873291 229.240356,335.875763 226.900116,339.857727 
	C225.583496,342.097931 222.717636,344.614258 220.397141,344.772797 
	C217.595245,344.964264 213.870590,343.516998 211.915955,341.470123 
	C208.960510,338.375244 208.949432,333.665161 211.884552,330.552856 
	C213.824921,328.495361 217.417038,327.845367 220.392532,326.995605 
	C221.437012,326.697296 222.847824,327.681732 224.418747,328.307678 
z"/>
<path fill="#D7D7D7" opacity="1.000000" stroke="none" 
	d="
M243.075684,299.904053 
	C238.660568,297.409149 235.376587,294.467560 234.652084,288.863739 
	C238.895584,292.890472 242.705887,296.506134 247.218307,300.788025 
	C245.554306,300.462860 244.481812,300.253265 243.075684,299.904053 
z"/>
</svg>