<?xml version="1.0" standalone="no"?>
<!DOCTYPE svg PUBLIC "-//W3C//DTD SVG 20010904//EN"
 "http://www.w3.org/TR/2001/REC-SVG-20010904/DTD/svg10.dtd">
<svg version="1.0" xmlns="http://www.w3.org/2000/svg"
 width="802.000000pt" height="330.000000pt" viewBox="0 0 802.000000 330.000000"
 preserveAspectRatio="xMidYMid meet">

<g transform="translate(0.000000,330.000000) scale(0.100000,-0.100000)"
fill="#000000" stroke="none">
<path d="M2908 1863 c-40 -6 -85 -53 -98 -104 -7 -26 -10 -87 -8 -154 4 -119
18 -162 62 -190 32 -21 150 -30 204 -16 43 12 48 22 36 69 -6 22 -10 23 -69
17 -35 -4 -77 -4 -94 0 l-31 7 0 133 c0 161 -1 160 104 153 69 -5 75 -3 80 16
14 50 8 63 -31 70 -40 6 -110 6 -155 -1z"/>
<path d="M3583 1862 c-73 -22 -108 -112 -101 -261 6 -121 24 -162 82 -191 43
-20 125 -25 191 -11 27 6 30 10 30 46 l0 40 -70 -3 c-39 -2 -83 2 -99 7 l-28
11 4 129 c2 71 7 133 11 138 5 4 45 8 90 9 l82 0 3 41 c3 38 1 41 -29 47 -39
8 -136 6 -166 -2z"/>
<path d="M4035 1863 c-37 -9 -83 -52 -97 -90 -7 -23 -13 -83 -13 -148 0 -95 3
-116 23 -152 33 -63 68 -78 182 -78 84 0 99 3 126 24 18 13 37 35 44 50 36 77
30 285 -10 341 -28 39 -87 60 -168 59 -37 -1 -76 -4 -87 -6z m175 -223 c0
-163 2 -160 -104 -160 l-66 0 0 138 c0 94 4 142 12 150 7 7 42 12 85 12 l73 0
0 -140z"/>
<path d="M6174 1863 c-36 -7 -82 -58 -94 -104 -7 -26 -11 -91 -8 -160 3 -108
5 -118 31 -152 41 -54 143 -73 241 -46 36 10 38 12 32 41 -3 17 -6 34 -6 39 0
5 -31 6 -69 3 -38 -4 -81 -4 -95 0 l-26 6 0 134 c0 162 -1 161 104 154 69 -5
75 -3 80 16 14 50 8 63 -31 70 -40 6 -124 6 -159 -1z"/>
<path d="M2524 1847 c-2 -7 -3 -109 -2 -227 l3 -215 53 -3 52 -3 0 230 0 231
-50 0 c-32 0 -52 -5 -56 -13z"/>
<path d="M4497 1853 c-9 -8 -9 -416 -1 -437 4 -12 20 -16 55 -16 l49 0 0 133
c1 153 -8 155 101 -20 l70 -113 50 0 49 0 0 230 0 230 -50 0 -50 0 0 -126 c0
-132 -7 -148 -39 -88 -17 29 -24 41 -95 152 -40 61 -41 62 -86 62 -26 0 -50
-3 -53 -7z"/>
<path d="M5060 1630 l0 -230 55 0 54 0 3 133 3 132 38 -65 c119 -202 117 -200
178 -200 l49 0 0 230 0 230 -55 0 -55 0 0 -132 0 -131 -53 84 c-29 46 -65 105
-80 132 -28 47 -28 47 -82 47 l-55 0 0 -230z"/>
<path d="M5630 1630 l0 -230 145 0 145 0 0 45 0 45 -95 0 -95 0 0 50 0 50 80
0 80 0 0 40 0 39 -77 3 -78 3 -3 48 -3 47 90 0 c71 0 91 3 91 14 0 7 3 28 6
45 l7 31 -147 0 -146 0 0 -230z"/>
<path d="M6480 1815 l0 -45 55 0 55 0 0 -185 0 -185 55 0 55 0 0 185 0 185 55
0 55 0 0 45 0 45 -165 0 -165 0 0 -45z"/>
</g>
</svg>
