<svg xmlns="http://www.w3.org/2000/svg" version="1.1" xmlns:xlink="http://www.w3.org/1999/xlink" xmlns:svgjs="http://svgjs.dev/svgjs" width="1000" height="1000" viewBox="0 0 1000 1000"><rect width="1000" height="1000" fill="#046380"></rect><g transform="matrix(0.7,0,0,0.7,149.57575757575756,282.1265587044535)"><svg viewBox="0 0 396 247" data-background-color="#046380" preserveAspectRatio="xMidYMid meet" height="623" width="1000" xmlns="http://www.w3.org/2000/svg" xmlns:xlink="http://www.w3.org/1999/xlink"><g id="tight-bounds" transform="matrix(1,0,0,1,0.2400000000000091,-0.09999999999999432)"><svg viewBox="0 0 395.52 247.2" height="247.2" width="395.52"><g><svg></svg></g><g><svg viewBox="0 0 395.52 247.2" height="247.2" width="395.52"><g transform="matrix(1,0,0,1,39.55199999999999,104.52733745199532)"><svg viewBox="0 0 316.416 38.145325096009344" height="38.145325096009344" width="316.416"><g><svg viewBox="0 0 316.416 38.145325096009344" height="38.145325096009344" width="316.416"><g><svg viewBox="0 0 316.416 38.145325096009344" height="38.145325096009344" width="316.416"><g><svg viewBox="0 0 316.416 38.145325096009344" height="38.145325096009344" width="316.416"><g><svg viewBox="0 0 316.416 38.145325096009344" height="38.145325096009344" width="316.416" id="textblock"><g><svg viewBox="0 0 316.416 38.145325096009344" height="38.145325096009344" width="316.416"><g transform="matrix(1,0,0,1,0,0)"><svg width="316.416" viewBox="2 -35.29999923706055 299.42999267578125 36.099998474121094" height="38.145325096009344" data-palette-color="#ffffff"><path d="M2-34.1L2-34.5 14.05-34.5 14.05-34.1 9.95-33.7 9.95-0.8 14.05-0.4 14.05 0 2 0 2-0.4 6.1-0.8 6.1-33.7 2-34.1ZM42.05-3.4Q40.6-1.8 38.47-0.85 36.35 0.1 34.1 0.1L34.1 0.1Q28.85 0.1 26-4.42 23.15-8.95 23.15-17.25L23.15-17.25Q23.15-25.6 26-30.15 28.85-34.7 34.15-34.7L34.15-34.7Q37.05-34.7 39.45-33.38 41.85-32.05 43.35-29.6L43.35-29.6Q44.85-27.1 45.55-23.25L45.55-23.25 46.25-23.45 45.75-34.7 45.1-34.7 43.9-32.3Q41-33.85 38.62-34.58 36.25-35.3 34-35.3L34-35.3Q29.7-35.3 26.1-32.9 22.5-30.5 20.42-26.35 18.35-22.2 18.35-17.25L18.35-17.25Q18.35-12.25 20.42-8.13 22.5-4 26.12-1.6 29.75 0.8 34.1 0.8L34.1 0.8Q36.55 0.8 39.17-0.15 41.8-1.1 44.05-2.75L44.05-2.75 45.75 0 46.4 0 46.4-11.5 45.75-11.6Q44.5-6.15 42.05-3.4L42.05-3.4ZM87.84-3.4Q86.39-1.8 84.27-0.85 82.14 0.1 79.89 0.1L79.89 0.1Q74.64 0.1 71.79-4.42 68.94-8.95 68.94-17.25L68.94-17.25Q68.94-25.6 71.79-30.15 74.64-34.7 79.94-34.7L79.94-34.7Q82.84-34.7 85.24-33.38 87.64-32.05 89.14-29.6L89.14-29.6Q90.64-27.1 91.34-23.25L91.34-23.25 92.04-23.45 91.54-34.7 90.89-34.7 89.69-32.3Q86.79-33.85 84.42-34.58 82.04-35.3 79.79-35.3L79.79-35.3Q75.49-35.3 71.89-32.9 68.29-30.5 66.22-26.35 64.14-22.2 64.14-17.25L64.14-17.25Q64.14-12.25 66.22-8.13 68.29-4 71.92-1.6 75.54 0.8 79.89 0.8L79.89 0.8Q82.34 0.8 84.97-0.15 87.59-1.1 89.84-2.75L89.84-2.75 91.54 0 92.19 0 92.19-11.5 91.54-11.6Q90.29-6.15 87.84-3.4L87.84-3.4ZM113.69-35.3Q118.04-35.3 121.67-32.9 125.29-30.5 127.37-26.38 129.44-22.25 129.44-17.25L129.44-17.25Q129.44-12.25 127.37-8.13 125.29-4 121.67-1.6 118.04 0.8 113.69 0.8L113.69 0.8Q109.34 0.8 105.72-1.6 102.09-4 100.02-8.13 97.94-12.25 97.94-17.25L97.94-17.25Q97.94-22.25 100.02-26.38 102.09-30.5 105.72-32.9 109.34-35.3 113.69-35.3L113.69-35.3ZM102.74-17.25Q102.74-8.9 105.59-4.38 108.44 0.15 113.69 0.15L113.69 0.15Q118.94 0.15 121.79-4.38 124.64-8.9 124.64-17.25L124.64-17.25Q124.64-25.6 121.79-30.15 118.94-34.7 113.69-34.7L113.69-34.7Q108.44-34.7 105.59-30.15 102.74-25.6 102.74-17.25L102.74-17.25ZM155.69-34.5L167.64-34.5 167.64-34.1 164.04-33.7Q162.84-33.55 162.44-33.1 162.04-32.65 162.04-31.45L162.04-31.45 162.04 0.8 161.54 0.8 139.09-31.05 138.89-31.05 138.89-3.05Q138.89-1.85 139.19-1.38 139.49-0.9 140.39-0.8L140.39-0.8 143.94-0.4 143.94 0 132.99 0 132.99-0.4 136.59-0.8Q137.49-0.9 137.79-1.38 138.09-1.85 138.09-3.05L138.09-3.05 138.09-32.15 137.89-32.45Q137.19-33.45 136.56-33.77 135.94-34.1 134.74-34.1L134.74-34.1 133.89-34.1 133.89-34.5 141.34-34.5 161.04-6.9 161.24-6.9 161.24-31.45Q161.24-32.65 160.94-33.15 160.64-33.65 159.74-33.7L159.74-33.7 155.69-34.1 155.69-34.5ZM192.38-34.5L204.34-34.5 204.34-34.1 200.74-33.7Q199.53-33.55 199.13-33.1 198.74-32.65 198.74-31.45L198.74-31.45 198.74 0.8 198.24 0.8 175.78-31.05 175.59-31.05 175.59-3.05Q175.59-1.85 175.88-1.38 176.19-0.9 177.09-0.8L177.09-0.8 180.63-0.4 180.63 0 169.69 0 169.69-0.4 173.28-0.8Q174.19-0.9 174.49-1.38 174.78-1.85 174.78-3.05L174.78-3.05 174.78-32.15 174.59-32.45Q173.88-33.45 173.26-33.77 172.63-34.1 171.44-34.1L171.44-34.1 170.59-34.1 170.59-34.5 178.03-34.5 197.74-6.9 197.94-6.9 197.94-31.45Q197.94-32.65 197.63-33.15 197.34-33.65 196.44-33.7L196.44-33.7 192.38-34.1 192.38-34.5ZM232.33-10.55L232.88-10.5 231.63 0 207.13 0 207.13-0.4 211.23-0.8 211.23-33.7 207.13-34.1 207.13-34.5 231.68-34.5 232.38-25.1 231.88-25.05 229.08-32.05Q228.63-33.2 228.11-33.55 227.58-33.9 226.38-33.9L226.38-33.9 215.08-33.9 215.08-18.55 222.48-18.55Q223.68-18.55 224.18-18.95 224.68-19.35 224.88-20.5L224.88-20.5 225.73-24.55 226.33-24.55 226.33-11.75 225.73-11.75 224.88-15.8Q224.68-16.95 224.18-17.35 223.68-17.75 222.48-17.75L222.48-17.75 215.08-17.75 215.08-0.6 226.28-0.6Q227.48-0.6 228.03-0.98 228.58-1.35 229.03-2.45L229.03-2.45 232.33-10.55ZM262.13-3.4Q260.68-1.8 258.56-0.85 256.43 0.1 254.18 0.1L254.18 0.1Q248.93 0.1 246.08-4.42 243.23-8.95 243.23-17.25L243.23-17.25Q243.23-25.6 246.08-30.15 248.93-34.7 254.23-34.7L254.23-34.7Q257.13-34.7 259.53-33.38 261.93-32.05 263.43-29.6L263.43-29.6Q264.93-27.1 265.63-23.25L265.63-23.25 266.33-23.45 265.83-34.7 265.18-34.7 263.98-32.3Q261.08-33.85 258.7-34.58 256.33-35.3 254.08-35.3L254.08-35.3Q249.78-35.3 246.18-32.9 242.58-30.5 240.5-26.35 238.43-22.2 238.43-17.25L238.43-17.25Q238.43-12.25 240.5-8.13 242.58-4 246.2-1.6 249.83 0.8 254.18 0.8L254.18 0.8Q256.63 0.8 259.25-0.15 261.88-1.1 264.13-2.75L264.13-2.75 265.83 0 266.48 0 266.48-11.5 265.83-11.6Q264.58-6.15 262.13-3.4L262.13-3.4ZM284.08-33.95L284.08-0.8 278.68-0.4 278.68 0 293.33 0 293.33-0.4 287.93-0.8 287.93-33.95 295.23-33.95Q296.43-33.95 296.95-33.58 297.48-33.2 297.93-32.05L297.93-32.05 301.03-24.35 301.43-24.45 300.33-35.3 300.03-35.3Q298.93-34.8 298.15-34.65 297.38-34.5 296.18-34.5L296.18-34.5 276.93-34.5Q275.73-34.5 274.95-34.65 274.18-34.8 273.08-35.3L273.08-35.3 272.78-35.3 270.83-24.45 271.23-24.35 274.68-32.05Q275.18-33.2 275.73-33.58 276.28-33.95 277.48-33.95L277.48-33.95 284.08-33.95Z" opacity="1" transform="matrix(1,0,0,1,0,0)" fill="#ffffff" class="undefined-text-0" data-fill-palette-color="primary" id="text-0"></path></svg></g></svg></g></svg></g></svg></g><g></g></svg></g></svg></g></svg></g><g mask="url(#fa9eabd6-ce0a-4c1c-a144-a7e38d2d2d7d)"><g transform="matrix(4.541077573666915, 0, 0, 4.541077573666915, 82.27937386848744, 0.9999999999999858)"><svg xmlns="http://www.w3.org/2000/svg" xmlns:xlink="http://www.w3.org/1999/xlink" version="1.1" x="0" y="0" viewBox="18.452590942382812 16.434003829956055 50.860450744628906 53.995994567871094" enable-background="new 0 0 90 90" xml:space="preserve" height="53.995994567871094" width="50.860450744628906" class="icon-none" data-fill-palette-color="accent" id="none"><path d="M68.617 46.749c-1.019-2.724-3.037-4.888-5.683-6.092-1.43-0.651-2.945-0.979-4.506-0.979-1.95 0-3.812 0.546-5.438 1.486l-9.532-11.926c0.198-0.314 0.38-0.64 0.538-0.983 1.908-4.194 0.05-9.16-4.141-11.068-1.097-0.5-2.261-0.753-3.458-0.753-3.269 0-6.257 1.92-7.613 4.894-1.909 4.193-0.05 9.158 4.143 11.071 1.097 0.5 2.262 0.753 3.458 0.753 1.759 0 3.428-0.572 4.815-1.551l9.256 11.579c-0.779 0.839-1.445 1.792-1.933 2.866-0.966 2.116-1.212 4.435-0.754 6.672l-13.812 5.029c-0.862-1.432-2.125-2.573-3.679-3.28-1.097-0.501-2.262-0.754-3.46-0.754-3.268 0-6.256 1.922-7.608 4.893-0.926 2.03-1.006 4.301-0.223 6.392 0.782 2.09 2.331 3.752 4.363 4.676 1.098 0.5 2.263 0.756 3.464 0.756 3.266 0 6.25-1.922 7.604-4.895 0.685-1.51 0.903-3.146 0.651-4.743l13.81-5.029c1.119 2.064 2.86 3.714 5.035 4.703 1.432 0.651 2.947 0.98 4.511 0.98 4.256 0 8.143-2.503 9.903-6.374C69.532 52.428 69.637 49.473 68.617 46.749zM31.466 64.189c-0.829 1.819-2.656 2.996-4.656 2.996-0.731 0-1.444-0.156-2.12-0.462-1.244-0.568-2.192-1.584-2.671-2.863-0.48-1.28-0.431-2.668 0.136-3.913 0.829-1.819 2.658-2.998 4.659-2.998 0.73 0 1.443 0.158 2.115 0.465 1.246 0.566 2.194 1.584 2.671 2.862C32.079 61.555 32.033 62.945 31.466 64.189z" fill="#ffffff" data-fill-palette-color="accent"></path></svg></g></g></svg></g><defs><mask id="d58d17dd-18bd-42c2-86ab-6c2927ab3c9d"><rect width="640" height="400" fill="white"></rect><rect width="348.05760000000004" height="56.15571663074034" fill="black" x="145.97119999999998" y="171.92214168462982" id="transform-me" transform="matrix(1,0,0,1,-122.24000000000001,-76.4)"></rect></mask><mask id="fa9eabd6-ce0a-4c1c-a144-a7e38d2d2d7d"><rect width="640" height="400" fill="white"></rect><rect width="348.05760000000004" height="56.15571663074034" fill="black" x="145.97119999999998" y="171.92214168462982" id="transform-me" transform="matrix(1,0,0,1,-122.24000000000001,-76.4)"></rect></mask></defs></svg><rect width="395.52" height="247.2" fill="none" stroke="none" visibility="hidden"></rect></g></svg></g></svg>